<svg width="24" height="24" viewBox="0 0 24 24" fill="none" xmlns="http://www.w3.org/2000/svg">
<path fillRule="evenodd" clipRule="evenodd" d="M14.8489 5.65811C14.3921 5.65792 13.9409 5.75916 13.5279 5.95453C13.115 6.14989 12.7506 6.43451 12.4609 6.78783C12.1713 7.14115 11.9638 7.55436 11.8533 7.99764C11.7428 8.44091 11.7321 8.9032 11.8219 9.35111C11.8529 9.50631 11.8465 9.66664 11.8035 9.81891C11.7604 9.97118 11.6817 10.1111 11.5741 10.227C11.4664 10.343 11.3327 10.4318 11.1841 10.486C11.0354 10.5403 10.876 10.5585 10.7189 10.5391C8.56867 10.275 6.54166 9.39107 4.88494 7.99511C4.91594 8.59711 5.12494 9.23711 5.57794 9.90711L6.25694 10.9111L5.14194 11.3861L4.92694 11.4781C5.08694 11.6611 5.27894 11.8481 5.49394 12.0331C5.78135 12.2791 6.08541 12.505 6.40394 12.7091L6.41494 12.7161H6.41594L7.96394 13.6551L6.34394 14.4651C6.26394 14.5051 6.18394 14.5411 6.10394 14.5731C6.45228 14.8626 6.83602 15.1065 7.24594 15.2991L8.63594 15.9561L7.47194 16.9601C6.83694 17.5081 6.19794 17.9171 5.36894 18.1331C6.64037 18.8104 8.05938 19.1631 9.49994 19.1601C14.3059 19.1601 18.1759 15.3251 18.1759 10.6261V10.1061L18.6009 9.80711C19.2649 9.34111 19.7339 8.71111 20.0699 7.99011H17.9099L17.6379 7.42011C17.3875 6.89278 16.9926 6.44731 16.4991 6.13542C16.0056 5.82354 15.4337 5.65803 14.8499 5.65811H14.8489ZM3.56894 12.9581C3.47457 13.0662 3.40457 13.1933 3.36367 13.3308C3.32278 13.4683 3.31196 13.613 3.33194 13.7551C3.44494 14.5561 3.92394 15.2461 4.45394 15.7731C4.59794 15.9161 4.75194 16.0531 4.91394 16.1841L4.83894 16.2041C4.35794 16.3241 3.70894 16.3491 2.62794 16.2441C2.4238 16.2241 2.21843 16.2673 2.03969 16.3679C1.86095 16.4686 1.71748 16.6217 1.62873 16.8067C1.53997 16.9916 1.51024 17.1993 1.54355 17.4017C1.57686 17.6041 1.6716 17.7914 1.81494 17.9381C2.81571 18.961 4.01123 19.7731 5.33096 20.3265C6.65069 20.8799 8.06789 21.1633 9.49894 21.1601C15.2119 21.1601 19.8979 16.7241 20.1629 11.1261C21.4529 10.0431 22.0979 8.57611 22.4459 7.24311C22.4846 7.09516 22.4889 6.94031 22.4583 6.79047C22.4278 6.64062 22.3633 6.49977 22.2698 6.37876C22.1763 6.25774 22.0563 6.15978 21.9191 6.0924C21.7818 6.02502 21.6309 5.99003 21.4779 5.99011H19.1249C18.5494 5.09644 17.7083 4.40555 16.7198 4.01455C15.7314 3.62354 14.6453 3.55206 13.6141 3.81016C12.5829 4.06825 11.6585 4.64295 10.9708 5.45349C10.2831 6.26403 9.86664 7.26968 9.77994 8.32911C7.93659 7.84926 6.28727 6.80992 5.05894 5.35411C4.95016 5.2255 4.81065 5.12644 4.65336 5.06614C4.49607 5.00585 4.32609 4.98626 4.15921 5.0092C3.99233 5.03215 3.83395 5.09687 3.69876 5.19738C3.56358 5.29788 3.45598 5.43091 3.38594 5.58411C2.77994 6.90611 2.66394 8.43011 3.33994 9.98011L3.10594 10.0801C2.88201 10.1755 2.70058 10.3493 2.59564 10.569C2.49071 10.7886 2.46948 11.039 2.53594 11.2731C2.72194 11.9251 3.13994 12.5011 3.56794 12.9581H3.56894Z" fill="white"/>
</svg>
